# xmcd
#
# Track frame offsets:
#	150
#	31383
#	51872
#	69630
#	97632
#	129433
#	148419
#	173894
#	199704
#	225806
#	246344
#	270827
#	299695
#	314406
#	341225
#
# Disc length: 4710 seconds
#
# Revision: 0
# Processed by: cddbd v1.5.1PL0 Copyright (c) Steve Scherf et al.
# Submitted via: audiograbber 1.83.01
#
DISCID=dd12640f
DTITLE=Santana - Playin' With Carlos
DYEAR=2005
DGENRE=Freestyle
TTITLE0=Something New
TTITLE1=Play Me Again
TTITLE2=My Love
TTITLE3=Don't Shake Me Up
TTITLE4=Everyday Is New
TTITLE5=Love Is Just A Word
TTITLE6=Don't Let The Cold
TTITLE7=Forever
TTITLE8=Got To Give You Up
TTITLE9=Heart In Winter
TTITLE10=Good Tradition
TTITLE11=Valentine Heart
TTITLE12=I Love You
TTITLE13=Cathedral Song (Acoustic Version)
TTITLE14=Twist In My Sobriety
EXTD=
EXTT0=
EXTT1=
EXTT2=
EXTT3=
EXTT4=
EXTT5=
EXTT6=
EXTT7=
EXTT8=
EXTT9=
EXTT10=
EXTT11=
EXTT12=
EXTT13=
EXTT14=
PLAYORDER=
